<svg width="48" height="48" viewBox="0 0 48 48" fill="none" xmlns="http://www.w3.org/2000/svg">
<g clip-path="url(#clip0)">
<rect width="48" height="48" fill="white"/>
<ellipse cx="26.4117" cy="27.0836" rx="20.9891" ry="20.8666" fill="#F7B650"/>
<path fill-rule="evenodd" clip-rule="evenodd" d="M45.8367 22.9369C45.8367 35.4631 35.6226 45.6177 23.0228 45.6177C10.4231 45.6177 0.208923 35.4631 0.208923 22.9369C0.208923 10.4106 10.4231 0.256088 23.0228 0.256088C35.6226 0.256088 45.8367 10.4106 45.8367 22.9369ZM3.85859 22.9369C3.85859 33.4592 12.4387 41.9893 23.0228 41.9893C33.6069 41.9893 42.1871 33.4592 42.1871 22.9369C42.1871 12.4145 33.6069 3.88445 23.0228 3.88445C12.4387 3.88445 3.85859 12.4145 3.85859 22.9369Z" fill="#37003C"/>
<path d="M21.9502 15.2455C22.5898 14.7835 23.4558 14.7835 24.0954 15.2455L30.0492 19.546C30.6888 20.0079 30.9564 20.8268 30.7121 21.5743L28.438 28.5325C28.1937 29.28 27.493 29.7861 26.7025 29.7861H19.3432C18.5526 29.7861 17.852 29.28 17.6077 28.5325L15.3335 21.5743C15.0892 20.8268 15.3568 20.0079 15.9964 19.546L21.9502 15.2455Z" fill="#37003C"/>
<path d="M19.2143 21.7066L20.669 26.1577H25.3767L26.8315 21.7066L23.0229 18.9557L19.2143 21.7066Z" fill="white"/>
<path d="M1.47366 23.6103C0.976908 23.2515 0.694965 22.6684 0.723398 22.0586C0.817318 20.0444 1.18331 18.0405 1.82136 16.0883C2.45941 14.1361 3.34807 12.301 4.46294 10.6166C4.80047 10.1067 5.37332 9.79968 5.98735 9.79968L7.23652 9.79968C8.02709 9.79968 8.72774 10.3058 8.97204 11.0533L11.2462 18.0115C11.4905 18.759 11.2229 19.5779 10.5833 20.0398L4.62948 24.3403C3.9899 24.8022 3.12385 24.8022 2.48427 24.3403L1.47366 23.6103Z" fill="#37003C"/>
<path d="M7.36545 17.8792L6.32111 14.6838C5.92122 15.4945 5.57731 16.3377 5.29238 17.2095C5.00746 18.0813 4.78716 18.9644 4.63135 19.854L7.36545 17.8792Z" fill="white"/>
<path d="M17.1959 43.615C16.6991 43.9738 16.0542 44.0602 15.4796 43.8449C13.5818 43.1337 11.7779 42.1684 10.1075 40.9618C8.43703 39.7553 6.95618 38.348 5.68934 36.7733C5.30581 36.2966 5.18914 35.6601 5.37889 35.0796L5.7649 33.8984C6.0092 33.151 6.70986 32.6449 7.50042 32.6449H14.8597C15.6503 32.6449 16.3509 33.151 16.5952 33.8985L18.8694 40.8567C19.1137 41.6042 18.8461 42.4231 18.2065 42.885L17.1959 43.615Z" fill="#37003C"/>
<path d="M13.5338 36.2733H10.1543C10.8063 36.9019 11.5067 37.4876 12.2526 38.0264C12.9985 38.5652 13.7753 39.0464 14.5782 39.4686L13.5338 36.2733Z" fill="white"/>
<path d="M40.9995 34.8403C41.1893 35.4209 41.0726 36.0574 40.6891 36.5341C39.4223 38.1088 37.9414 39.516 36.271 40.7226C34.6005 41.9292 32.7967 42.8944 30.8988 43.6057C30.3243 43.821 29.6793 43.7346 29.1826 43.3758L28.172 42.6458C27.5324 42.1838 27.2648 41.365 27.5091 40.6175L29.7832 33.6592C30.0275 32.9118 30.7282 32.4057 31.5187 32.4057H38.878C39.6686 32.4057 40.3692 32.9118 40.6135 33.6592L40.9995 34.8403Z" fill="#37003C"/>
<path d="M32.8444 36.034L31.8001 39.2294C32.603 38.8072 33.3797 38.326 34.1257 37.7872C34.8716 37.2484 35.572 36.6627 36.224 36.034H32.8444Z" fill="white"/>
<path d="M39.9679 9.62337C40.5819 9.62337 41.1548 9.93037 41.4923 10.4403C42.6072 12.1247 43.4958 13.9597 44.1339 15.912C44.7719 17.8642 45.1379 19.8681 45.2319 21.8823C45.2603 22.4921 44.9783 23.0752 44.4816 23.434L43.471 24.164C42.8314 24.6259 41.9653 24.6259 41.3258 24.164L35.372 19.8635C34.7324 19.4016 34.4648 18.5827 34.7091 17.8352L36.9832 10.8769C37.2275 10.1295 37.9282 9.62337 38.7187 9.62337L39.9679 9.62337Z" fill="#37003C"/>
<path d="M38.5898 17.7029L41.3239 19.6777C41.1681 18.7881 40.9478 17.905 40.6629 17.0332C40.378 16.1614 40.0341 15.3182 39.6342 14.5075L38.5898 17.7029Z" fill="white"/>
<path d="M15.5287 2.80016C15.7185 2.21959 16.1892 1.77282 16.7813 1.61127C18.7372 1.07765 20.7673 0.804474 22.832 0.804474C24.8968 0.804474 26.9269 1.07765 28.8827 1.61127C29.4749 1.77282 29.9456 2.21959 30.1353 2.80016L30.5213 3.98126C30.7656 4.72875 30.498 5.54761 29.8584 6.00958L23.9046 10.31C23.2651 10.772 22.399 10.772 21.7594 10.31L15.8056 6.00958C15.1661 5.54761 14.8984 4.72875 15.1427 3.98126L15.5287 2.80016Z" fill="#37003C"/>
<path d="M20.098 4.62501L22.8321 6.59986L25.5662 4.62501C24.667 4.49744 23.7541 4.43283 22.8321 4.43283C21.91 4.43283 20.9971 4.49744 20.098 4.62501Z" fill="white"/>
</g>
<defs>
<clipPath id="clip0">
<rect width="48" height="48" fill="white"/>
</clipPath>
</defs>
</svg>
